<svg xmlns="http://www.w3.org/2000/svg" xml:space="preserve"  viewBox="0 0 100.353 100.353">
  <path d="M59.07 53.905c-20.092 0-36.438 16.35-36.438 36.445a1.5 1.5 0 0 0 1.5 1.5H94.01a1.5 1.5 0 0 0 1.5-1.5c0-20.096-16.347-36.445-36.44-36.445zM25.666 88.85c.788-17.748 15.47-31.945 33.404-31.945 17.936 0 32.618 14.197 33.406 31.945h-66.81zm32.799-38.783c11.557 0 20.959-9.402 20.959-20.959S70.021 8.149 58.465 8.149s-20.959 9.402-20.959 20.959 9.402 20.959 20.959 20.959zm0-38.918c9.902 0 17.959 8.056 17.959 17.959s-8.057 17.959-17.959 17.959c-9.903 0-17.959-8.056-17.959-17.959s8.056-17.959 17.959-17.959z"/>
  <path d="M47.309 29.571a3.327 3.327 0 0 1 3.186-2.318c1.458 0 2.74.934 3.191 2.325a1.502 1.502 0 0 0 1.89.964 1.5 1.5 0 0 0 .964-1.89 6.342 6.342 0 0 0-6.045-4.399 6.318 6.318 0 0 0-6.044 4.406 1.5 1.5 0 0 0 2.858.912zm13.974.973a1.5 1.5 0 0 0 1.885-.974 3.327 3.327 0 0 1 3.188-2.317c1.457 0 2.737.934 3.188 2.324a1.5 1.5 0 1 0 2.854-.923 6.334 6.334 0 0 0-6.041-4.4 6.319 6.319 0 0 0-6.047 4.407 1.498 1.498 0 0 0 .973 1.883zm-37.55 2.455.017 4.142a1.5 1.5 0 0 0 1.5 1.494h.006a1.5 1.5 0 0 0 1.494-1.506l-.017-4.136c0-5.488-4.815-10.124-10.514-10.124a1.5 1.5 0 0 0-1.5 1.515l.224 22.119a6.709 6.709 0 0 0-3.698-1.108c-3.724 0-6.754 3.029-6.754 6.752s3.03 6.752 6.754 6.752 6.754-3.029 6.754-6.752v-.003l.001-.013-.264-26.103c3.332.707 5.997 3.66 5.997 6.971zm-12.488 22.9a3.758 3.758 0 0 1-3.754-3.752c0-2.069 1.684-3.752 3.754-3.752s3.754 1.683 3.754 3.752a3.758 3.758 0 0 1-3.754 3.752z"/>
</svg>
